<svg width="20" height="20" viewBox="0 0 20 20" fill="none" xmlns="http://www.w3.org/2000/svg">
<path d="M9.41698 17.6328C7.19429 17.6328 4.9716 17.633 2.74869 17.6326C2.51493 17.6326 2.28348 17.6123 2.06726 17.514C1.81088 17.3977 1.66905 17.2128 1.66969 16.9143C1.67412 14.5894 1.67793 12.2646 1.66799 9.93958C1.66567 9.41794 1.82102 8.95717 2.08205 8.52092C2.30081 8.15547 2.59038 7.8473 2.88629 7.54463C4.04223 6.36269 5.37466 5.42213 6.83476 4.65551C7.72882 4.18629 8.65734 3.79886 9.61481 3.48097C10.686 3.12525 11.7809 2.864 12.8945 2.68118C13.5825 2.56852 14.2743 2.48757 14.9691 2.43346C15.8718 2.36307 16.7768 2.34976 17.6819 2.36836C18.0934 2.37681 18.3766 2.73275 18.3295 3.14321C18.2741 3.62533 18.2338 4.10914 18.1862 4.59211C18.1403 5.05774 18.0926 5.52316 18.0473 5.98879C18.0011 6.46499 17.9573 6.94119 17.9112 7.41739C17.8671 7.87605 17.8216 8.33471 17.7764 8.79336C17.7375 9.18882 17.698 9.58428 17.6591 9.97995C17.6117 10.4595 17.5646 10.9391 17.5177 11.4187C17.4729 11.8774 17.4289 12.336 17.3839 12.7945C17.3376 13.2671 17.29 13.7395 17.2435 14.2121C17.2053 14.6006 17.17 14.9895 17.1298 15.3779C17.0753 15.9061 17.044 16.4375 16.9605 16.9619C16.8903 17.4022 16.5938 17.6332 16.1487 17.633C13.9048 17.6326 11.6608 17.6328 9.41698 17.6328ZM4.04857 9.87004C4.07415 9.90365 4.11093 9.90386 4.14305 9.91063C4.41212 9.96854 4.68139 10.0013 4.95934 9.9808C5.55179 9.93705 6.04215 9.69482 6.43571 9.25477C6.49151 9.19242 6.54836 9.17212 6.62783 9.17212C8.86426 9.17339 11.1009 9.17318 13.3373 9.17297C14.4115 9.17297 15.4858 9.1717 16.56 9.17487C16.6636 9.17508 16.6984 9.14676 16.7039 9.0396C16.717 8.7904 16.7475 8.54226 16.7699 8.29349C16.8102 7.84857 16.8502 7.40386 16.8897 6.95895C16.9212 6.60512 16.9523 6.25109 16.9825 5.89727C17.0222 5.43481 17.0624 4.97235 17.0996 4.50967C17.1264 4.17657 17.1457 3.84283 17.1748 3.51014C17.1898 3.3402 17.1856 3.32837 17.0148 3.32604C16.4196 3.31759 15.8259 3.33851 15.232 3.3829C14.6808 3.42412 14.1321 3.48393 13.5859 3.56531C12.7605 3.68811 11.9436 3.85466 11.1364 4.06814C9.91051 4.39237 8.72392 4.8208 7.58932 5.38852C6.68258 5.84232 5.82888 6.38045 5.0386 7.01686C4.87416 7.14938 4.71542 7.28909 4.55711 7.42881C4.46179 7.51293 4.46475 7.51525 4.56853 7.57866C4.61355 7.60614 4.65878 7.63362 4.70105 7.66532C5.17239 8.01808 5.39897 8.4983 5.43998 9.07722C5.44737 9.18206 5.39707 9.24927 5.32669 9.3131C5.07897 9.5382 4.78982 9.68574 4.46897 9.77261C4.33159 9.80959 4.19103 9.83728 4.04857 9.87004ZM9.40049 16.5261C9.40049 16.5263 9.40049 16.5263 9.40049 16.5265C11.5627 16.5265 13.725 16.5265 15.8872 16.5261C15.9327 16.5261 15.9796 16.5265 16.0235 16.5163C16.1208 16.4942 16.1956 16.4085 16.189 16.3365C16.181 16.2492 16.1064 16.1957 15.9872 16.1934C15.9132 16.1919 15.8392 16.1925 15.7653 16.1925C14.5468 16.1925 13.3285 16.193 12.11 16.193C9.05322 16.193 5.99649 16.1927 2.93998 16.1927C2.89432 16.1927 2.84803 16.1913 2.8028 16.1963C2.71466 16.2061 2.66055 16.2559 2.65231 16.3456C2.64407 16.4371 2.6948 16.4933 2.77786 16.5163C2.82077 16.5284 2.86854 16.5259 2.91398 16.5259C5.07601 16.5263 7.23825 16.5261 9.40049 16.5261ZM14.7687 10.5527C14.7687 10.5525 14.7687 10.5525 14.7687 10.5523C14.4451 10.5523 14.1213 10.5513 13.7977 10.5525C13.5544 10.5536 13.3779 10.7161 13.372 10.9417C13.3663 11.1568 13.5396 11.3407 13.7778 11.343C14.4322 11.3494 15.0866 11.3492 15.7407 11.3428C15.987 11.3405 16.1544 11.1608 16.148 10.9353C16.1419 10.7123 15.9639 10.5532 15.7183 10.5527C15.4019 10.5523 15.0853 10.5527 14.7687 10.5527Z" fill="#959595"/>
</svg>
