<svg width="24" height="25" viewBox="0 0 24 25" fill="none" xmlns="http://www.w3.org/2000/svg">
<path d="M18.4704 17.33L18.8604 20.49C18.9604 21.32 18.0704 21.9 17.3604 21.47L13.9004 19.41C13.6604 19.27 13.6004 18.97 13.7304 18.73C14.2304 17.81 14.5004 16.77 14.5004 15.73C14.5004 12.07 11.3604 9.09 7.50038 9.09C6.71038 9.09 5.94038 9.21 5.22038 9.45C4.85038 9.57 4.49038 9.23 4.58038 8.85C5.49038 5.21 8.99038 2.5 13.1704 2.5C18.0504 2.5 22.0004 6.19 22.0004 10.74C22.0004 13.44 20.6104 15.83 18.4704 17.33Z" fill="#1572D3"/>
<path d="M13 15.73C13 16.92 12.56 18.02 11.82 18.89C10.83 20.09 9.26 20.86 7.5 20.86L4.89 22.41C4.45 22.68 3.89 22.31 3.95 21.8L4.2 19.83C2.86 18.9 2 17.41 2 15.73C2 13.97 2.94 12.42 4.38 11.5C5.27 10.92 6.34 10.59 7.5 10.59C10.54 10.59 13 12.89 13 15.73Z" fill="#1572D3"/>
</svg>
